<svg width="24" height="24" viewBox="0 0 24 24" fill="none" xmlns="http://www.w3.org/2000/svg">
<path d="M14.12 14.12C13.8454 14.4148 13.5141 14.6512 13.1462 14.8151C12.7782 14.9791 12.3809 15.0673 11.9781 15.0744C11.5753 15.0815 11.1752 15.0074 10.8016 14.8565C10.4281 14.7056 10.0887 14.4811 9.80385 14.1962C9.51897 13.9113 9.29439 13.572 9.14351 13.1984C8.99262 12.8249 8.91853 12.4247 8.92563 12.0219C8.93274 11.6191 9.02091 11.2219 9.18488 10.8539C9.34884 10.4859 9.58525 10.1547 9.88 9.88003M17.94 17.94C16.2306 19.243 14.1491 19.9649 12 20C5 20 1 12 1 12C2.24389 9.68192 3.96914 7.65663 6.06 6.06003L17.94 17.94ZM9.9 4.24002C10.5883 4.0789 11.2931 3.99836 12 4.00003C19 4.00003 23 12 23 12C22.393 13.1356 21.6691 14.2048 20.84 15.19L9.9 4.24002Z" stroke="white" stroke-linecap="round" stroke-linejoin="round"/>
<path d="M1 1L23 23" stroke="white" stroke-linecap="round" stroke-linejoin="round"/>
<mask id="path-3-inside-1_7356_8309" fill="white">
<path d="M17.0556 12.0556C17.3342 11.777 17.5462 11.4373 17.6796 11.056C17.813 10.6746 17.8651 10.2591 17.833 9.83297C17.8009 9.4069 17.6852 8.97867 17.4925 8.57274C17.2997 8.1668 17.0338 7.79112 16.7098 7.46713C16.3858 7.14314 16.0101 6.8772 15.6042 6.68448C15.1983 6.49176 14.77 6.37604 14.344 6.34393C13.9179 6.31181 13.5023 6.36394 13.1209 6.49733C12.7396 6.63071 12.3999 6.84274 12.1214 7.12132L14.5885 9.58845L17.0556 12.0556Z"/>
</mask>
<path d="M17.0556 12.0556C17.3342 11.777 17.5462 11.4373 17.6796 11.056C17.813 10.6746 17.8651 10.2591 17.833 9.83297C17.8009 9.4069 17.6852 8.97867 17.4925 8.57274C17.2997 8.1668 17.0338 7.79112 16.7098 7.46713C16.3858 7.14314 16.0101 6.8772 15.6042 6.68448C15.1983 6.49176 14.77 6.37604 14.344 6.34393C13.9179 6.31181 13.5023 6.36394 13.1209 6.49733C12.7396 6.63071 12.3999 6.84274 12.1214 7.12132L14.5885 9.58845L17.0556 12.0556Z" stroke="white" stroke-width="1.5" mask="url(#path-3-inside-1_7356_8309)"/>
</svg>
